#!OML:ASF E:\acrobat2\Project_11_07_03\Capture day 1\Session 1\Acrobat.ASF
:FULLY-SPECIFIED
:DEGREES
1057
root 8.4705 10.5074 16.3127 20.4477 -5.98449 7.67152
lowerback 36.6955 0.16808 5.9604
upperback 15.583 1.61082 -7.17107
thorax -0.933875 1.53016 -11.355
lowerneck 16.564 -9.37561 14.3788
upperneck 2.58054 -9.49495 -2.94864
head -2.54404 -4.40574 -2.43106
rclavicle -2.8625e-014 4.57205e-014
rhumerus 50.7854 -41.1967 -29.6248
rradius 99.3629
rwrist -17.7223
rhand -21.4328 -43.4168
rfingers 7.12502
rthumb 4.9565 -73.3389
lclavicle -2.8625e-014 4.57205e-014
lhumerus 66.7565 8.76259 55.4121
lradius 106.493
lwrist 42.0179
lhand -43.7178 -36.947
lfingers 7.12502
lthumb -16.5495 -7.63275
rfemur -115.466 -39.9491 32.3204
rtibia 56.9677
rfoot -212.721 4.86488
rtoes 0.347989
lfemur -114.417 41.7825 -37.0181
ltibia 68.6413
lfoot -171.537 20.4799
ltoes 38.0304
1058
root 8.48112 10.385 16.3166 21.5256 -6.21129 7.68335
lowerback 37.1483 0.136654 6.49793
upperback 15.8314 1.73869 -7.41138
thorax -0.765044 1.66293 -11.966
lowerneck 17.1035 -9.5236 14.3358
upperneck 2.01686 -9.58322 -2.75212
head -2.78986 -4.46752 -2.32258
rclavicle -1.74931e-014 5.96354e-014
rhumerus 52.2695 -40.9016 -32.7246
rradius 98.5198
rwrist -20.2233
rhand -20.3074 -41.2939
rfingers 7.12502
rthumb 6.04307 -71.1877
lclavicle -1.74931e-014 5.96354e-014
lhumerus 68.2881 6.44639 57.1618
lradius 108.309
lwrist 42.6792
lhand -42.1092 -37.077
lfingers 7.12502
lthumb -15.0003 -7.64035
rfemur -117.178 -39.401 32.9142
rtibia 56.5903
rfoot -213.649 4.71223
rtoes -0.226795
lfemur -116.382 40.917 -38.3248
ltibia 68.1996
lfoot -174.415 20.7777
ltoes 37.8587
1059
root 8.49663 10.256 16.3281 22.5783 -6.42823 7.58825
lowerback 37.5025 0.0863263 7.12383
upperback 16.1388 1.87212 -7.61586
thorax -0.487323 1.81248 -12.5881
lowerneck 17.6195 -9.66656 14.4082
upperneck 1.37977 -9.65467 -2.72452
head -3.06868 -4.51775 -2.28268
rclavicle -1.27222e-014 3.06128e-014
rhumerus 53.9175 -40.6084 -36.0478
rradius 97.7618
rwrist -23.4939
rhand -19.4358 -39.2966
rfingers 7.12502
rthumb 6.88443 -69.1647
lclavicle -1.27222e-014 3.06128e-014
lhumerus 69.7387 4.09528 58.5961
lradius 109.654
lwrist 43.3336
lhand -40.3874 -37.2637
lfingers 7.12502
lthumb -13.3412 -7.71077
rfemur -118.865 -38.9476 33.3638
rtibia 56.0563
rfoot -214.037 4.46867
rtoes -2.63881
lfemur -118.277 40.1725 -39.3036
ltibia 67.5381
lfoot -177.447 20.9244
ltoes 36.8062
1060
root 8.50617 10.1235 16.3469 23.4942 -6.70672 7.3557
lowerback 37.9486 0.0948097 7.66053
upperback 16.4897 2.05541 -7.7528
thorax -0.173922 1.98565 -13.1036
lowerneck 18.074 -9.79815 14.5554
upperneck 0.733565 -9.71884 -2.8842
head -3.3557 -4.55722 -2.31387
rclavicle 2.06736e-014 2.78299e-014
rhumerus 55.7561 -40.2557 -39.5912
rradius 97.0662
rwrist -27.3133
rhand -18.8857 -37.5149
rfingers 7.12502
rthumb 7.41552 -67.3649
lclavicle 2.06736e-014 2.78299e-014
lhumerus 71.0864 1.79698 59.6916
lradius 110.467
lwrist 43.6968
lhand -38.7638 -37.6164
lfingers 7.12502
lthumb -11.7759 -7.96743
rfemur -120.429 -38.4559 33.7049
rtibia 55.3642
rfoot -213.968 4.31537
rtoes -6.50801
lfemur -120.069 39.7947 -39.9393
ltibia 66.7192
lfoot -179.918 20.9759
ltoes 35.4083
1061
root 8.50727 9.98571 16.3681 24.3788 -6.99812 6.9948
lowerback 38.3662 0.154666 8.08838
upperback 16.874 2.26783 -7.8146
thorax 0.196959 2.16939 -13.4823
lowerneck 18.4407 -9.89412 14.7
upperneck 0.132349 -9.76499 -3.1804
head -3.62371 -4.58031 -2.39363
rclavicle 2.54444e-014 -3.53837e-014
rhumerus 57.7943 -39.7811 -43.3399
rradius 96.3527
rwrist -31.2387
rhand -18.6709 -35.9375
rfingers 7.12502
rthumb 7.62285 -65.7801
lclavicle 2.54444e-014 -3.53837e-014
lhumerus 72.3226 -0.371984 60.4285
lradius 110.697
lwrist 43.4646
lhand -37.4404 -38.1057
lfingers 7.12502
lthumb -10.4995 -8.38795
rfemur -122.084 -37.8626 34.1317
rtibia 54.4964
rfoot -213.606 4.27299
rtoes -10.7488
lfemur -121.96 39.6937 -40.3462
ltibia 65.7854
lfoot -181.385 21.012
ltoes 34.5314
1062
root 8.49915 9.84339 16.3899 25.2575 -7.29718 6.53148
lowerback 38.7787 0.31937 8.37876
upperback 17.2522 2.56546 -7.76834
thorax 0.585874 2.38163 -13.6885
lowerneck 18.747 -10.0082 14.8739
upperneck -0.411295 -9.8501 -3.58889
head -3.87693 -4.61357 -2.51245
rclavicle -2.8625e-014 4.29375e-014
rhumerus 59.8365 -39.1797 -47.0841
rradius 95.5159
rwrist -34.6888
rhand -18.6708 -34.4935
rfingers 7.12502
rthumb 7.62293 -64.3361
lclavicle -2.8625e-014 4.29375e-014
lhumerus 73.4608 -2.49938 60.8862
lradius 110.306
lwrist 42.4452
lhand -36.5685 -38.6468
lfingers 7.12502
lthumb -9.65839 -8.88826
rfemur -123.876 -37.141 34.7146
rtibia 53.4847
rfoot -213.14 4.27757
rtoes -14.1469
lfemur -124.013 39.8335 -40.6256
ltibia 64.7938
lfoot -181.829 21.1374
ltoes 34.5416
1063
root 8.48802 9.69313 16.4094 26.3108 -7.52069 6.04619
lowerback 38.9539 0.562127 8.61312
upperback 17.5967 2.93048 -7.61455
thorax 1.03068 2.61658 -13.7568
lowerneck 19.0226 -10.1672 15.0797
upperneck -0.906217 -9.99951 -4.05724
head -4.12196 -4.67119 -2.64996
rclavicle -6.36111e-015 5.725e-014
rhumerus 61.7145 -38.4501 -50.6472
rradius 94.443
rwrist -37.064
rhand -18.6772 -33.1449
rfingers 7.12502
rthumb 7.61675 -62.9877
lclavicle -6.36111e-015 5.725e-014
lhumerus 74.5069 -4.65588 61.1652
lradius 109.28
lwrist 40.6566
lhand -36.171 -39.1174
lfingers 7.12502
lthumb -9.27477 -9.34136
rfemur -126.077 -36.3266 35.6118
rtibia 52.3366
rfoot -212.741 4.30359
rtoes -15.9895
lfemur -126.396 39.9287 -40.9437
ltibia 63.7576
lfoot -181.931 21.2206
ltoes 34.2252
1064
root 8.47619 9.5365 16.4301 27.4851 -7.70177 5.61072
lowerback 38.9176 0.88101 8.7679
upperback 17.9206 3.35166 -7.37576
thorax 1.52917 2.86859 -13.6946
lowerneck 19.3018 -10.3657 15.2806
upperneck -1.37948 -10.2029 -4.50993
head -4.36607 -4.75244 -2.776
rclavicle -1.11319e-014 1.39149e-014
rhumerus 63.3741 -37.6112 -53.9594
rradius 93.0362
rwrist -37.8743
rhand -18.3923 -31.9245
rfingers 7.12502
rthumb 7.89172 -61.7572
lclavicle -1.11319e-014 1.39149e-014
lhumerus 75.4901 -6.83606 61.3687
lradius 107.623
lwrist 38.3326
lhand -36.1428 -39.3793
lfingers 7.12502
lthumb -9.2476 -9.60208
rfemur -128.572 -35.4602 36.7338
rtibia 51.1055
rfoot -212.503 4.37647
rtoes -16.2981
lfemur -128.988 39.9685 -41.3656
ltibia 62.7172
lfoot -181.823 21.3261
ltoes 33.6412
1065
root 8.46462 9.3758 16.4538 28.742 -7.86261 5.27609
lowerback 38.7031 1.26023 8.83577
upperback 18.2322 3.80788 -7.0829
thorax 2.07076 3.12821 -13.5251
lowerneck 19.6134 -10.6141 15.4905
upperneck -1.87405 -10.4644 -4.92997
head -4.62739 -4.8612 -2.88399
rclavicle -9.54166e-015 -7.7526e-015
rhumerus 64.7912 -36.6975 -56.9922
rradius 91.2473
rwrist -36.9781
rhand -17.7195 -30.873
rfingers 7.12502
rthumb 8.54103 -60.6802
lclavicle -9.54166e-015 -7.7526e-015
lhumerus 76.4326 -9.01354 61.5793
lradius 105.369
lwrist 35.8491
lhand -36.2998 -39.3459
lfingers 7.12502
lthumb -9.39906 -9.57546
rfemur -131.241 -34.5648 37.9874
rtibia 49.8576
rfoot -212.537 4.45306
rtoes -14.8447
lfemur -131.667 39.9326 -41.932
ltibia 61.6963
lfoot -181.677 21.5033
ltoes 33.0126
1066
root 8.4538 9.21437 16.4815 30.0114 -7.99467 5.07603
lowerback 38.3887 1.64937 8.83801
upperback 18.548 4.24996 -6.76772
thorax 2.63678 3.37488 -13.282
lowerneck 19.9539 -10.8908 15.6719
upperneck -2.37729 -10.7592 -5.25744
head -4.89393 -4.98859 -2.95235
rclavicle -4.13472e-014 4.57205e-014
rhumerus 66.0134 -35.7556 -59.7728
rradius 89.0527
rwrist -34.5522
rhand -16.555 -30.0084
rfingers 7.12502
rthumb 9.66468 -59.7667
lclavicle -4.13472e-014 4.57205e-014
lhumerus 77.3345 -11.1319 61.8415
lradius 102.578
lwrist 33.6197
lhand -36.4355 -39.043
lfingers 7.12502
lthumb -9.53 -9.27847
rfemur -133.923 -33.6976 39.2715
rtibia 48.647
rfoot -212.784 4.70281
rtoes -13.2
lfemur -134.274 39.7938 -42.6195
ltibia 60.7178
lfoot -181.422 21.7527
ltoes 32.6343
1067
root 8.44324 9.05564 16.513 31.2265 -8.09392 5.00746
lowerback 38.0497 1.99088 8.80257
upperback 18.893 4.62138 -6.46839
thorax 3.21963 3.58673 -13.0095
lowerneck 20.3154 -11.1448 15.7918
upperneck -2.92979 -11.0285 -5.46079
head -5.16813 -5.11071 -2.97296
rclavicle -3.18055e-015 8.45829e-014
rhumerus 67.0971 -34.7956 -62.3684
rradius 86.5309
rwrist -31.1434
rhand -14.8332 -29.3366
rfingers 7.12502
rthumb 11.3256 -59.0108
lclavicle -3.18055e-015 8.45829e-014
lhumerus 78.2109 -13.0802 62.1171
lradius 99.3029
lwrist 31.9695
lhand -36.4356 -38.6195
lfingers 7.12502
lthumb -9.53014 -8.85505
rfemur -136.455 -32.908 40.4818
rtibia 47.5091
rfoot -213.247 5.01597
rtoes -11.5957
lfemur -136.699 39.5515 -43.3858
ltibia 59.7933
lfoot -181.169 22.0405
ltoes 32.6786
1068
root 8.43316 8.90302 16.5494 32.3315 -8.12547 5.04162
lowerback 37.7447 2.21399 8.79906
upperback 19.2917 4.86163 -6.21457
thorax 3.82197 3.74399 -12.7656
lowerneck 20.7041 -11.31 15.8448
upperneck -3.64433 -11.1897 -5.5257
head -5.47788 -5.19478 -2.94909
rclavicle 2.22639e-014 2.11209e-014
rhumerus 68.099 -33.816 -64.8625
rradius 83.7816
rwrist -27.444
rhand -12.6554 -28.8639
rfingers 7.12502
rthumb 13.4254 -58.4113
lclavicle 2.22639e-014 2.11209e-014
lhumerus 79.0821 -14.7531 62.3407
lradius 95.5872
lwrist 31.0191
lhand -36.3024 -38.2842
lfingers 7.12502
lthumb -9.40155 -8.51393
rfemur -138.725 -32.2682 41.5698
rtibia 46.4713
rfoot -213.924 5.31285
rtoes -10.2227
lfemur -138.865 39.1937 -44.1443
ltibia 58.9288
lfoot -180.928 22.2871
ltoes 33.1379
1069
root 8.42191 8.75884 16.5889 33.3392 -8.07764 5.15014
lowerback 37.4739 2.31068 8.8359
upperback 19.7453 4.96336 -6.01243
thorax 4.44698 3.84502 -12.5627
lowerneck 20.882 -11.4682 15.8822
upperneck -4.04571 -11.3796 -5.63512
head -5.66181 -5.28265 -2.94748
rclavicle 1.59028e-014 5.86415e-015
rhumerus 68.9967 -32.8256 -67.2011
rradius 80.9232
rwrist -24.3458
rhand -10.5405 -28.584
rfingers 7.12502
rthumb 15.4631 -57.9856
lclavicle 1.59028e-014 5.86415e-015
lhumerus 79.9801 -16.1094 62.4629
lradius 91.4672
lwrist 30.6917
lhand -36.0834 -38.2168
lfingers 7.12502
lthumb -9.19032 -8.43707
rfemur -140.71 -31.7696 42.5039
rtibia 45.5499
rfoot -214.803 5.57066
rtoes -9.23318
lfemur -140.774 38.7363 -44.8335
ltibia 58.1032
lfoot -180.695 22.4551
ltoes 34.0479
1070
root 8.41058 8.62462 16.6315 34.2653 -7.93269 5.32499
lowerback 37.2222 2.27544 8.94388
upperback 20.2498 4.92859 -5.86204
thorax 5.1011 3.89502 -12.4208
lowerneck 20.9504 -11.5651 15.9187
upperneck -4.3747 -11.5044 -5.69876
head -5.79757 -5.34352 -2.94552
rclavicle 9.54166e-015 1.59028e-014
rhumerus 69.7624 -31.8655 -69.31
rradius 78.0245
rwrist -22.468
rhand -8.95715 -28.6167
rfingers 7.12502
rthumb 16.9877 -57.8938
lclavicle 9.54166e-015 1.59028e-014
lhumerus 80.9436 -17.1625 62.448
lradius 86.9826
lwrist 30.7789
lhand -35.831 -38.5078
lfingers 7.12502
lthumb -8.9467 -8.71747
rfemur -142.429 -31.4409 43.2761
rtibia 44.7462
rfoot -215.837 5.76851
rtoes -8.64954
lfemur -142.437 38.1603 -45.3976
ltibia 57.3108
lfoot -180.597 22.5174
ltoes 34.8226
1071
root 8.39921 8.50115 16.6774 35.1369 -7.71075 5.5648
lowerback 36.9846 2.15986 9.11073
upperback 20.7775 4.8152 -5.74017
thorax 5.76846 3.9183 -12.3245
lowerneck 20.8877 -11.6763 16.0262
upperneck -4.53625 -11.6483 -5.77287
head -5.86611 -5.4112 -2.96249
rclavicle 0 1.39149e-014
rhumerus 70.3276 -31.0242 -71.0444
rradius 75.0914
rwrist -22.1101
rhand -8.38689 -29.046
rfingers 7.12502
rthumb 17.5365 -58.2751
lclavicle 0 1.39149e-014
lhumerus 81.9896 -18.0168 62.3012
lradius 82.209
lwrist 31.0444
lhand -35.5804 -39.2116
lfingers 7.12502
lthumb -8.7049 -9.4111
rfemur -143.927 -31.252 43.8768
rtibia 44.0486
rfoot -216.968 5.94537
rtoes -8.38552
lfemur -143.872 37.4933 -45.8112
ltibia 56.5534
lfoot -180.832 22.5146
ltoes 34.9424
